<svg width="100" height="100" viewBox="0 0 100 100" fill="none" xmlns="http://www.w3.org/2000/svg">
<path d="M26.0561 7.97741C29.1885 8.68188 31.4952 9.779 33.2394 11.0479C40.9058 8.92028 49.7886 8.06371 58.1807 8.88709C49.6638 -0.73297 37.837 -1.90233 25.716 2.32585C22.7997 3.34311 23.184 7.3983 26.0561 7.97741Z" fill="white"/>
<path d="M13.6178 60.8824C19.4371 55.8037 26.0685 54.642 33.3279 57.4296C40.0707 60.1024 51.098 63.2591 61.1538 64.8793C60.4287 63.7386 60.4224 63.7314 60.373 63.646C57.6606 58.9315 51.7121 46.6966 55.045 34.9413C57.0094 28.0138 61.8081 22.4403 69.3083 18.3753C69.3697 18.341 69.3585 18.3472 70.5757 17.6812C61.4237 14.2184 51.0246 13.7174 41.4108 15.2642C32.7105 16.656 28.1727 18.8508 23.9113 21.6671C3.19235 35.3439 -2.72925 53.8901 1.08949 69.4573C1.08988 69.4589 1.09046 69.4603 1.09085 69.4618C5.567 87.6909 24.2813 99.1049 25.0758 99.5819C25.5219 99.8498 26.0341 99.9998 26.6079 99.9998C27.4286 99.9998 32.5813 99.8262 36.1579 95.6135C39.319 91.8902 40.2188 86.3476 38.8313 79.1401C38.4798 77.3123 36.5068 76.255 34.7732 77.014C34.7248 77.035 29.8647 79.1297 23.9381 78.9073C16.8178 78.6392 11.2199 75.2108 7.27858 68.7109C8.29506 66.9436 10.4264 63.6675 13.6178 60.8824Z" fill="white"/>
<path d="M99.9619 58.9307C97.3857 42.1451 90.0365 28.38 77.0963 20.7908C70.2713 24.5254 72.6257 23.2381 72.1161 23.5161C66.0467 26.8014 62.1992 31.1831 60.6805 36.5392C57.9681 46.1056 63.0624 56.5598 65.4189 60.6698L68.7054 65.8393C78.4973 66.7322 88.6576 66.1929 97.2407 62.5177C98.2617 62.0803 98.9882 61.8253 99.538 60.9637C99.9234 60.359 100.074 59.6379 99.9619 58.9307ZM78.1544 43.5722C76.4647 43.5722 75.2008 42.223 75.2008 40.6434C75.2008 39.0613 76.467 37.7146 78.1544 37.7146C79.7719 37.7146 81.0832 39.026 81.0832 40.6434C81.0832 42.2609 79.7719 43.5722 78.1544 43.5722Z" fill="white"/>
</svg>
